<?xml version="1.0" encoding="UTF-8"?>
<svg id="Layer_1" data-name="Layer 1" xmlns="http://www.w3.org/2000/svg" xmlns:xlink="http://www.w3.org/1999/xlink" viewBox="0 0 438 440">
  <defs>
    <style>
      .cls-1 {
        clip-path: url(#clippath);
      }

      .cls-2 {
        fill: none;
      }

      .cls-2, .cls-3, .cls-4, .cls-5, .cls-6 {
        stroke-width: 0px;
      }

      .cls-7 {
        clip-path: url(#clippath-1);
      }

      .cls-8 {
        clip-path: url(#clippath-2);
      }

      .cls-3 {
        fill: #8cc63f;
      }

      .cls-4 {
        fill: lime;
      }

      .cls-9 {
        opacity: .7;
      }

      .cls-5 {
        fill: #006837;
      }

      .cls-6 {
        fill: #fff;
      }
    </style>
    <clipPath id="clippath">
      <rect class="cls-2" width="438" height="440"/>
    </clipPath>
    <clipPath id="clippath-1">
      <rect class="cls-2" width="438" height="440"/>
    </clipPath>
    <clipPath id="clippath-2">
      <rect class="cls-2" y="15.01" width="438" height="424.99"/>
    </clipPath>
  </defs>
  <g id="Group_3151" data-name="Group 3151">
    <g class="cls-1">
      <g id="Group_3150" data-name="Group 3150">
        <g id="Group_3149" data-name="Group 3149">
          <g class="cls-7">
            <g id="Group_3148" data-name="Group 3148">
              <path id="Path_1548" data-name="Path 1548" class="cls-5" d="M307.92,15.01h-.05C279.11,4.69,249.05-.38,218.83,0c-30.16-.35-60.17,4.71-88.88,14.99-25.59,9.06-49.17,24.07-69.17,44.04-21.56,21.97-38.02,49.43-47.97,80.04-.61,17.77,4.07,35.26,13.31,49.75,9.38,13.59,22.12,23.84,36.65,29.48,17.07,6.78,35.1,10.07,53.23,9.73,0,0-96.29-20.95-33.22-138.75,28.06-52.41,90.5-67.56,120.01-71.85,5.29-1.13,10.66-1.69,16.04-1.67,27.82,0,50.71,14.73,68.67,44.19,22.78,36.88,34.17,92.9,34.18,168.09.21,16.41-.56,32.83-2.3,49.13-1.63,12.63-4.04,25.13-7.23,37.39-2.89,12.2-6.52,24.18-10.85,35.84-4.65,12.66-10.66,24.65-17.91,35.69-7.19,11.07-16.29,20.42-26.78,27.5-11.47,7.38-24.55,11.07-37.79,10.66-43.81,0-74.81-35.64-92.99-106.91-1.76-7.61-3.84-15.34-6.24-23.17-4.63-14.06-12.86-26.31-23.66-35.22-13.44-11.19-28.74-19.28-45.02-23.8-15.99-4.7-32.45-7.09-48.98-7.1H0s17.08,75.42,83.66,91.9c66.57,16.48,52.94,107.02,52.94,107.02,26.66,8.94,54.38,13.34,82.23,13.04,0,0,117.13-3.09,176.67-177.73C454.48,89.33,310.72,16.38,307.91,15.01"/>
              <g id="Group_3147" data-name="Group 3147" class="cls-9">
                <g id="Group_3146" data-name="Group 3146">
                  <g class="cls-8">
                    <g id="Group_3145" data-name="Group 3145">
                      <path id="Path_1549" data-name="Path 1549" class="cls-4" d="M438,228.04c.7,38.59-8.04,76.67-25.3,110.15-17.58,32.55-43.42,58.57-74.26,74.77-32.64,18.03-72.51,27.04-119.61,27.04-70.65,0,117.13-3.09,176.67-177.73C454.5,89.34,310.73,16.39,307.92,15.01c25.59,9.14,49.18,24.12,69.28,43.98,19.56,19.81,34.88,44.25,44.85,71.52,11.07,30.99,16.49,64.14,15.93,97.49"/>
                      <path id="Path_1550" data-name="Path 1550" class="cls-3" d="M136.6,426.95c-18.34-6.29-35.87-15.2-52.16-26.51-42.28-29.45-68.13-64.27-77.55-104.44C2.08,273.75-.24,250.92,0,228.03c0,0,17.08,75.42,83.66,91.9,66.58,16.48,52.94,107.02,52.94,107.02"/>
                      <path id="Path_1551" data-name="Path 1551" class="cls-6" d="M202.79,17.42c-36.51,7.88-62.16,43.79-76.95,107.72-6.99,31.32-10.3,63.51-9.86,95.78v7.11s-96.28-20.95-33.21-138.75c28.07-52.41,90.5-67.56,120.01-71.85"/>
                    </g>
                  </g>
                </g>
              </g>
            </g>
          </g>
        </g>
      </g>
    </g>
  </g>
</svg>